<svg xmlns="http://www.w3.org/2000/svg" viewBox="0 0 24 24" fill="none">
    <path d="M5.625 6.75a1.125 1.125 0 1 0 0-2.25 1.125 1.125 0 0 0 0 2.25m6.375 0a1.125 1.125 0 1 0 0-2.25 1.125 1.125 0 0 0 0 2.25m6.375 0a1.125 1.125 0 1 0 0-2.25 1.125 1.125 0 0 0 0 2.25m-12.75 6.375a1.125 1.125 0 1 0 0-2.25 1.125 1.125 0 0 0 0 2.25m6.375 0a1.125 1.125 0 1 0 0-2.25 1.125 1.125 0 0 0 0 2.25m6.375 0a1.125 1.125 0 1 0 0-2.25 1.125 1.125 0 0 0 0 2.25M5.625 19.5a1.125 1.125 0 1 0 0-2.25 1.125 1.125 0 0 0 0 2.25m6.375 0a1.125 1.125 0 1 0 0-2.25 1.125 1.125 0 0 0 0 2.25m6.375 0a1.125 1.125 0 1 0 0-2.25 1.125 1.125 0 0 0 0 2.25" fill="currentColor"/>
</svg>
