<svg xmlns="http://www.w3.org/2000/svg" viewBox="0 0 256 256"><path fill="none" d="M0 0h256v256H0z"/><path d="M184 80h42.58a8 8 0 0 1 7.42 5l14 35M24 144h160" fill="none" stroke="currentColor" stroke-linecap="round" stroke-linejoin="round" stroke-width="var(--icon-stroke-width, 2)"/><circle cx="192" cy="192" r="24" fill="none" stroke="currentColor" stroke-linecap="round" stroke-linejoin="round" stroke-width="var(--icon-stroke-width, 2)"/><circle cx="80" cy="192" r="24" fill="none" stroke="currentColor" stroke-linecap="round" stroke-linejoin="round" stroke-width="var(--icon-stroke-width, 2)"/><path fill="none" stroke="currentColor" stroke-linecap="round" stroke-linejoin="round" stroke-width="var(--icon-stroke-width, 2)" d="M168 192h-64m80-72h64v64a8 8 0 0 1-8 8h-24m-160 0H32a8 8 0 0 1-8-8V72a8 8 0 0 1 8-8h152v105.37"/></svg>