<svg xmlns="http://www.w3.org/2000/svg" viewBox="0 0 20 20">
  <path d="M12.775 1.93839C12.6698 1.88702 12.5523 1.86622 12.4358 1.87838C12.3194 1.89053 12.2087 1.93515 12.1164 2.00714L6.66016 6.25011H3.125C2.79348 6.25011 2.47554 6.3818 2.24112 6.61623C2.0067 6.85065 1.875 7.16859 1.875 7.50011V12.5001C1.875 12.8316 2.0067 13.1496 2.24112 13.384C2.47554 13.6184 2.79348 13.7501 3.125 13.7501H6.66016L12.1164 17.9931C12.2259 18.0788 12.361 18.1253 12.5 18.1251C12.6658 18.1251 12.8247 18.0593 12.9419 17.9421C13.0592 17.8248 13.125 17.6659 13.125 17.5001V2.50011C13.1251 2.3831 13.0923 2.26842 13.0305 2.16912C12.9686 2.06981 12.8801 1.98987 12.775 1.93839Z" fill="currentColor"/>
  <path d="M18.3839 10.0003L19.8175 8.56754C19.9348 8.45026 20.0007 8.2912 20.0007 8.12535C20.0007 7.9595 19.9348 7.80044 19.8175 7.68316C19.7003 7.56588 19.5412 7.5 19.3753 7.5C19.2095 7.5 19.0504 7.56588 18.9332 7.68316L17.5003 9.11675L16.0675 7.68316C15.9503 7.56588 15.7912 7.5 15.6253 7.5C15.4595 7.5 15.3004 7.56588 15.1832 7.68316C15.0659 7.80044 15 7.9595 15 8.12535C15 8.2912 15.0659 8.45026 15.1832 8.56754L16.6168 10.0003L15.1832 11.4332C15.0659 11.5504 15 11.7095 15 11.8753C15 12.0412 15.0659 12.2003 15.1832 12.3175C15.3004 12.4348 15.4595 12.5007 15.6253 12.5007C15.7912 12.5007 15.9503 12.4348 16.0675 12.3175L17.5003 10.8839L18.9332 12.3175C19.0504 12.4348 19.2095 12.5007 19.3753 12.5007C19.5412 12.5007 19.7003 12.4348 19.8175 12.3175C19.9348 12.2003 20.0007 12.0412 20.0007 11.8753C20.0007 11.7095 19.9348 11.5504 19.8175 11.4332L18.3839 10.0003Z" fill="currentColor"/>
</svg>