<svg  xmlns="http://www.w3.org/2000/svg" viewBox="0 0 24 24" fill="none">
  <path d="M20.3926 8.16023C20.3176 9.79523 19.1776 12.034 16.9651 14.8765C14.6813 17.8465 12.7501 19.3315 11.1676 19.3315C10.1888 19.3315 9.3601 18.4277 8.68135 16.6202C7.36135 11.7752 6.79885 8.93648 5.7076 8.93648C5.5801 8.93648 5.14135 9.20273 4.3876 9.72773L3.6001 8.70773C5.5351 7.00898 7.38385 5.11898 8.5426 5.01398C9.85135 4.88648 10.6538 5.78273 10.9576 7.69523C12.0338 14.5015 12.5101 15.529 14.4676 12.4465C15.1688 11.3365 15.5476 10.4927 15.6001 9.91148C15.7801 8.19023 14.2576 8.30648 13.2263 8.74898C14.0513 6.04523 15.6301 4.73273 17.9588 4.80773C19.6763 4.85273 20.4901 5.97398 20.3926 8.16023Z" fill="currentColor"/>
</svg>
