<svg xmlns="http://www.w3.org/2000/svg" viewBox="0 0 20 20">
<path d="M13.125 2.49953V17.4995C13.1249 17.6165 13.092 17.7311 13.03 17.8302C12.9681 17.9294 12.8795 18.0092 12.7745 18.0606C12.6694 18.1119 12.552 18.1328 12.4357 18.1207C12.3194 18.1087 12.2087 18.0643 12.1164 17.9925L6.66016 13.7495H3.125C2.79348 13.7495 2.47554 13.6178 2.24112 13.3834C2.0067 13.149 1.875 12.8311 1.875 12.4995V7.49953C1.875 7.16801 2.0067 6.85007 2.24112 6.61565C2.47554 6.38123 2.79348 6.24953 3.125 6.24953H6.66016L12.1164 2.00656C12.2087 1.93479 12.3194 1.89035 12.4357 1.87832C12.552 1.86628 12.6694 1.88713 12.7745 1.93848C12.8795 1.98984 12.9681 2.06964 13.03 2.16882C13.092 2.268 13.1249 2.38258 13.125 2.49953ZM15.625 7.49953C15.4592 7.49953 15.3003 7.56538 15.1831 7.68259C15.0658 7.7998 15 7.95877 15 8.12453V11.8745C15 12.0403 15.0658 12.1993 15.1831 12.3165C15.3003 12.4337 15.4592 12.4995 15.625 12.4995C15.7908 12.4995 15.9497 12.4337 16.0669 12.3165C16.1842 12.1993 16.25 12.0403 16.25 11.8745V8.12453C16.25 7.95877 16.1842 7.7998 16.0669 7.68259C15.9497 7.56538 15.7908 7.49953 15.625 7.49953ZM18.125 6.24953C17.9592 6.24953 17.8003 6.31538 17.6831 6.43259C17.5658 6.5498 17.5 6.70877 17.5 6.87453V13.1245C17.5 13.2903 17.5658 13.4493 17.6831 13.5665C17.8003 13.6837 17.9592 13.7495 18.125 13.7495C18.2908 13.7495 18.4497 13.6837 18.5669 13.5665C18.6842 13.4493 18.75 13.2903 18.75 13.1245V6.87453C18.75 6.70877 18.6842 6.5498 18.5669 6.43259C18.4497 6.31538 18.2908 6.24953 18.125 6.24953Z" fill="currentColor"/>
</svg>