<svg xmlns="http://www.w3.org/2000/svg" viewBox="0 0 20 20">
  <path width="256" height="256" fill="none" d="M0 0H20V20H0V0z"/>
  <path cx="88" cy="216" r="16" d="M8.125 16.875A1.25 1.25 0 0 1 6.875 18.125A1.25 1.25 0 0 1 5.625 16.875A1.25 1.25 0 0 1 8.125 16.875z" fill="currentColor"/>
  <path cx="192" cy="216" r="16" d="M16.25 16.875A1.25 1.25 0 0 1 15 18.125A1.25 1.25 0 0 1 13.75 16.875A1.25 1.25 0 0 1 16.25 16.875z" fill="currentColor"/>
  <path d="M1.25 2.5h1.875l2.871 10.334A1.25 1.25 0 0 0 7.2 13.75H14.922a1.25 1.25 0 0 0 1.205 -0.916L18.125 5.625H3.993" fill="none" stroke="currentColor" stroke-linecap="round" stroke-linejoin="round" stroke-width="var(--icon-stroke-width, 2)"/>
</svg>