<svg xmlns="http://www.w3.org/2000/svg" viewBox="0 0 24 24">
  <path d="M19.2001 3.59961H4.79635C4.13635 3.59961 3.6001 4.14336 3.6001 4.81086V19.1884C3.6001 19.8559 4.13635 20.3996 4.79635 20.3996H19.2001C19.8601 20.3996 20.4001 19.8559 20.4001 19.1884V4.81086C20.4001 4.14336 19.8601 3.59961 19.2001 3.59961ZM8.6776 17.9996H6.1876V9.98211H8.68135V17.9996H8.6776ZM7.4326 5.99961C8.23135 5.99961 8.87635 6.64461 8.87635 7.44336C8.87635 8.24211 8.23135 8.88711 7.4326 8.88711C6.63385 8.88711 5.98885 8.24211 5.98885 7.44336C5.98885 6.64461 6.63385 5.99961 7.4326 5.99961ZM18.0113 17.9996H15.5213V14.0996C15.5213 13.1696 15.5026 11.9734 14.2276 11.9734C12.9301 11.9734 12.7313 12.9859 12.7313 14.0321V17.9996H10.2413V9.98211H12.6301V11.0771H12.6638C12.9976 10.4471 13.8113 9.78336 15.0226 9.78336C17.5426 9.78336 18.0113 11.4446 18.0113 13.6046V17.9996Z" fill="currentColor"/>
</svg>