<svg xmlns="http://www.w3.org/2000/svg" viewBox="0 0 24 24" fill="none">
  <path d="M13.2279 3.084C11.0748 2.78781 8.88725 3.28066 7.06916 4.47154C5.25108 5.66241 3.92526 7.47089 3.33654 9.56302C2.74781 11.6552 2.93593 13.8896 3.86616 15.8539C4.79639 17.8182 6.40591 19.3795 8.39751 20.2496C8.34365 19.5584 8.39308 18.863 8.54418 18.1863C8.71066 17.4313 9.7104 13.2704 9.7104 13.2704C9.51132 12.8241 9.41183 12.3399 9.41884 11.8513C9.41884 10.515 10.19 9.51797 11.1493 9.51797C11.3216 9.51546 11.4924 9.55009 11.6502 9.6195C11.8079 9.68891 11.9489 9.79148 12.0635 9.92022C12.178 10.049 12.2636 10.2009 12.3142 10.3656C12.3648 10.5304 12.3794 10.7041 12.3569 10.8749C12.3569 11.6848 11.8368 12.9104 11.565 14.0604C11.5113 14.2713 11.5079 14.4919 11.5551 14.7044C11.6022 14.9169 11.6986 15.1153 11.8365 15.2836C11.9744 15.452 12.15 15.5856 12.349 15.6737C12.548 15.7618 12.7649 15.802 12.9823 15.7909C14.6902 15.7909 15.8348 13.6033 15.8348 11.0207C15.8348 9.04104 14.5237 7.55808 12.1067 7.55808C11.5284 7.53561 10.9516 7.6309 10.4113 7.83816C9.87101 8.04543 9.37845 8.36034 8.96356 8.76379C8.54867 9.16723 8.22011 9.65079 7.99781 10.1851C7.77552 10.7194 7.66413 11.2933 7.67042 11.872C7.64466 12.5139 7.85175 13.1435 8.25353 13.6447C8.32861 13.7007 8.38343 13.7797 8.40972 13.8696C8.43602 13.9595 8.43236 14.0556 8.39931 14.1432C8.35791 14.3088 8.25353 14.7038 8.21214 14.8487C8.20353 14.8978 8.1835 14.9443 8.15367 14.9842C8.12383 15.0242 8.08503 15.0566 8.04038 15.0789C7.99573 15.1011 7.94649 15.1125 7.89661 15.1123C7.84673 15.112 7.79761 15.1 7.75321 15.0773C6.50781 14.5788 5.9211 13.2083 5.9211 11.6434C5.9211 9.08154 8.06636 6.01483 12.3587 6.01483C15.7745 6.01483 18.0458 8.51373 18.0458 11.1863C18.0458 14.7038 16.0868 17.3485 13.1919 17.3485C12.7593 17.3623 12.3301 17.2669 11.9441 17.0709C11.5582 16.8749 11.2278 16.5848 10.9837 16.2273C10.9837 16.2273 10.4636 18.3114 10.361 18.7055C10.1516 19.3864 9.84259 20.0326 9.44404 20.6231C10.2746 20.875 11.1376 21.001 12.005 20.9974C13.1871 20.9984 14.3577 20.7662 15.4498 20.3141C16.542 19.862 17.5342 19.1989 18.3698 18.3628C19.2053 17.5266 19.8677 16.5339 20.319 15.4414C20.7704 14.349 21.0018 13.1782 21 11.9962C20.9989 9.82302 20.2115 7.72365 18.7833 6.08572C17.3551 4.44778 15.3825 3.38191 13.2297 3.0849L13.2279 3.084Z" fill="currentColor"/>
</svg>