<svg xmlns="http://www.w3.org/2000/svg" viewBox="0 0 256 256"><path fill="none" d="M0 0h256v256H0z"/><rect x="32" y="80" width="192" height="48" rx="8" fill="none" stroke="currentColor" stroke-linecap="round" stroke-linejoin="round" stroke-width="var(--icon-stroke-width, 2)"/><path d="M208 128v72a8 8 0 0 1-8 8H56a8 8 0 0 1-8-8v-72m80-48v128m48.79-176.79c9.34 9.34 9.89 25.06 0 33.82C159.88 80 128 80 128 80s0-31.88 15-48.79c8.73-9.89 24.45-9.34 33.79 0m-97.58 0c-9.34 9.34-9.89 25.06 0 33.82C96.12 80 128 80 128 80s0-31.88-15-48.79c-8.73-9.89-24.45-9.34-33.79 0" fill="none" stroke="currentColor" stroke-linecap="round" stroke-linejoin="round" stroke-width="var(--icon-stroke-width, 2)"/></svg>