<svg xmlns="http://www.w3.org/2000/svg" viewBox="0 0 24 24" fill="none">
  <path d="M9.98981 17.2589C11.3248 17.2589 12.407 16.3032 12.407 14.8417V4H15.306C15.1434 5.97723 17.1089 7.88718 19.2766 7.8435V10.5695C17.4228 10.5695 15.8464 9.78561 15.2977 9.35059V14.8417C15.2977 17.2589 13.3961 20 9.98981 20C6.58348 20 4.72339 17.2589 4.72339 14.8417C4.72339 11.43 8.33382 9.45136 10.7251 9.93497V12.7115C10.6048 12.669 10.2946 12.6061 10.0303 12.6061C8.68425 12.5564 7.57259 13.6482 7.57259 14.8417C7.57259 16.1767 8.65482 17.2589 9.98981 17.2589Z" fill="currentColor"/>
</svg>