<svg xmlns="http://www.w3.org/2000/svg" viewBox="0 0 256 256"><path fill="none" d="M0 0h256v256H0z"/><path d="M96 192a32 32 0 0 0 64 0m24-168a102.7 102.7 0 0 1 36.29 40M35.71 64A102.7 102.7 0 0 1 72 24" fill="none" stroke="currentColor" stroke-linecap="round" stroke-linejoin="round" stroke-width="var(--icon-stroke-width,2)"/><path d="M56 112a72 72 0 0 1 144 0c0 35.82 8.3 56.6 14.9 68a8 8 0 0 1-6.9 12H48a8 8 0 0 1-6.88-12C47.71 168.6 56 147.81 56 112" fill="none" stroke="currentColor" stroke-linecap="round" stroke-linejoin="round" stroke-width="var(--icon-stroke-width,2)"/></svg>