<svg viewBox="0 0 256 256" fill="none" xmlns="http://www.w3.org/2000/svg">
<path d="M128 24C107.431 24 87.3234 30.0995 70.2207 41.5272C53.118 52.9548 39.788 69.1974 31.9165 88.2009C24.045 107.204 21.9855 128.115 25.9983 148.289C30.0112 168.463 39.9162 186.994 54.4609 201.539C69.0056 216.084 87.5366 225.989 107.711 230.002C127.885 234.015 148.796 231.955 167.799 224.083C186.803 216.212 203.045 202.882 214.473 185.779C225.901 168.677 232 148.569 232 128C231.971 100.426 221.004 73.9905 201.507 54.4931C182.009 34.9956 155.574 24.0291 128 24ZM173.66 109.66L117.66 165.66C116.917 166.404 116.035 166.994 115.064 167.397C114.092 167.799 113.051 168.006 112 168.006C110.949 168.006 109.908 167.799 108.936 167.397C107.965 166.994 107.083 166.404 106.34 165.66L82.34 141.66C80.8389 140.159 79.9956 138.123 79.9956 136C79.9956 133.877 80.8389 131.841 82.34 130.34C83.8411 128.839 85.8771 127.996 88 127.996C90.1229 127.996 92.1589 128.839 93.66 130.34L112 148.69L162.34 98.34C163.083 97.5967 163.966 97.0071 164.937 96.6049C165.908 96.2026 166.949 95.9956 168 95.9956C169.051 95.9956 170.092 96.2026 171.063 96.6049C172.034 97.0071 172.917 97.5967 173.66 98.34C174.403 99.0833 174.993 99.9657 175.395 100.937C175.797 101.908 176.004 102.949 176.004 104C176.004 105.051 175.797 106.092 175.395 107.063C174.993 108.034 174.403 108.917 173.66 109.66Z" fill="currentColor"/>
</svg>
