<svg xmlns="http://www.w3.org/2000/svg" viewBox="0 0 24 24">
  <path d="M21.0412 16.1473C20.9137 15.8023 20.6737 15.6185 20.4 15.4648C20.3475 15.4348 20.3025 15.4085 20.2612 15.3935C20.1787 15.3523 20.0962 15.311 20.0137 15.266C19.1587 14.8123 18.4912 14.2423 18.0262 13.5635C17.895 13.3723 17.7787 13.1698 17.685 12.9598C17.6437 12.8473 17.6475 12.7835 17.6775 12.7235C17.7075 12.6785 17.7412 12.641 17.7862 12.611C17.9325 12.5135 18.0862 12.416 18.1875 12.3485C18.3712 12.2285 18.5175 12.1348 18.6075 12.071C18.96 11.8273 19.2037 11.5648 19.3575 11.2723C19.4662 11.0698 19.5262 10.8485 19.5412 10.6198C19.5562 10.391 19.5187 10.1623 19.4362 9.95227C19.2037 9.34102 18.6262 8.96227 17.925 8.96227C17.7787 8.96227 17.6287 8.97727 17.4862 9.00727C17.4487 9.01477 17.4075 9.02602 17.37 9.03352C17.3775 8.61352 17.3662 8.17477 17.3287 7.73977C17.1975 6.20977 16.6612 5.41102 16.1025 4.76977C15.7462 4.36852 15.3262 4.03102 14.8575 3.76852C14.01 3.28477 13.05 3.04102 12.0037 3.04102C10.9575 3.04102 10.0012 3.28477 9.15374 3.76852C8.68499 4.03102 8.26499 4.37227 7.90499 4.77352C7.34624 5.41102 6.80999 6.21352 6.67874 7.74352C6.64124 8.17852 6.63374 8.62102 6.63749 9.03727C6.59999 9.02602 6.56249 9.01852 6.52124 9.01102C6.37499 8.98102 6.22874 8.96602 6.08249 8.96602C5.38124 8.96602 4.80374 9.34477 4.57124 9.95602C4.48874 10.1698 4.45124 10.3985 4.46624 10.6235C4.48124 10.8485 4.54124 11.0735 4.64999 11.276C4.80374 11.5685 5.05124 11.8273 5.39999 12.0748C5.49374 12.1385 5.63999 12.2323 5.81999 12.3523C5.91749 12.416 6.06374 12.5098 6.20624 12.6035C6.25499 12.6373 6.29624 12.6785 6.32999 12.7273C6.35999 12.7873 6.35999 12.8548 6.31499 12.9748C6.22124 13.181 6.10874 13.3798 5.98124 13.5673C5.52749 14.231 4.87874 14.7898 4.05374 15.2398C3.61499 15.4723 3.15749 15.626 2.96624 16.151C2.81999 16.5448 2.91749 16.9948 3.28499 17.3735C3.41999 17.516 3.57749 17.6323 3.74999 17.726C4.10999 17.9248 4.49249 18.0748 4.88624 18.1798C4.96874 18.2023 5.04749 18.236 5.11499 18.281C5.24999 18.3973 5.23124 18.5773 5.40749 18.836C5.49749 18.971 5.60999 19.0873 5.74499 19.1773C6.11999 19.436 6.54374 19.4548 6.98999 19.4698C7.39499 19.4848 7.85249 19.5035 8.37374 19.676C8.59124 19.7473 8.81624 19.886 9.07499 20.0473C9.70124 20.4335 10.56 20.9585 11.9925 20.9585C13.425 20.9585 14.2912 20.4298 14.9212 20.0435C15.18 19.886 15.405 19.7473 15.615 19.676C16.1362 19.5035 16.5975 19.4848 16.9987 19.4698C17.445 19.451 17.8687 19.436 18.2437 19.1773C18.4012 19.0685 18.5325 18.926 18.6262 18.7573C18.7537 18.5398 18.7537 18.386 18.8737 18.2773C18.9412 18.2323 19.0125 18.1985 19.0912 18.1798C19.4925 18.0748 19.8787 17.921 20.2462 17.7223C20.43 17.6248 20.595 17.4935 20.7337 17.3398L20.7375 17.3323C21.0825 16.961 21.1687 16.526 21.03 16.1398L21.0412 16.1473ZM19.7662 16.8335C18.99 17.2648 18.4725 17.216 18.0675 17.4748C17.7262 17.696 17.9287 18.1685 17.6812 18.341C17.3775 18.551 16.4737 18.326 15.3112 18.7123C14.3512 19.031 13.7362 19.9423 12.0112 19.9423C10.2862 19.9423 9.68624 19.031 8.70749 18.7085C7.54499 18.3223 6.64124 18.551 6.33749 18.3373C6.08999 18.1648 6.29249 17.6923 5.95124 17.471C5.54999 17.2123 5.03249 17.2573 4.25249 16.8298C3.75749 16.556 4.03874 16.3873 4.20374 16.3085C7.01999 14.9435 7.46999 12.836 7.49249 12.6823C7.51499 12.4948 7.54499 12.3448 7.33499 12.1535C7.13249 11.966 6.23999 11.4148 5.99249 11.2423C5.58374 10.9573 5.40374 10.6685 5.53499 10.3198C5.62874 10.076 5.85374 9.98602 6.09374 9.98602C6.16874 9.98602 6.24374 9.99352 6.31874 10.0123C6.76874 10.1098 7.20749 10.3348 7.45874 10.3948C7.48874 10.4023 7.51874 10.406 7.55249 10.406C7.68749 10.406 7.73624 10.3385 7.72499 10.1848C7.69499 9.69352 7.62749 8.73352 7.70249 7.83727C7.80749 6.60352 8.20499 5.99227 8.67749 5.45227C8.90624 5.19352 9.97124 4.06477 12.0112 4.06477C14.0512 4.06477 15.1125 5.18227 15.3375 5.44102C15.81 5.98102 16.2075 6.59227 16.3125 7.82602C16.3912 8.72227 16.3237 9.68227 16.29 10.1735C16.2787 10.3348 16.3275 10.3948 16.4625 10.3948C16.4925 10.3948 16.5262 10.391 16.5562 10.3835C16.8075 10.3235 17.2462 10.0985 17.6962 10.001C17.7712 9.98602 17.8462 9.97477 17.9212 9.97477C18.1612 9.97477 18.3862 10.0685 18.48 10.3085C18.6112 10.661 18.435 10.946 18.0225 11.231C17.775 11.4035 16.8825 11.9548 16.68 12.1423C16.47 12.3335 16.5 12.4835 16.5225 12.6748C16.5412 12.8323 16.9912 14.9398 19.8112 16.301C19.9762 16.3835 20.2575 16.5523 19.7625 16.8298L19.7662 16.8335Z" fill="currentColor"/>
</svg>
