<svg xmlns="http://www.w3.org/2000/svg" viewBox="0 0 24 24">
  <path d="M21.8137 7.05453C21.5812 6.16578 20.8837 5.46828 20.0025 5.23203C18.4087 4.80078 12.0037 4.80078 12.0037 4.80078C12.0037 4.80078 5.5987 4.80078 4.0012 5.23203C3.11995 5.46828 2.4262 6.16578 2.18995 7.05453C1.76245 8.66328 1.76245 12.0158 1.76245 12.0158C1.76245 12.0158 1.76245 15.3683 2.18995 16.977C2.4262 17.862 3.11995 18.5333 4.0012 18.7695C5.5987 19.2008 12.0037 19.2008 12.0037 19.2008C12.0037 19.2008 18.4087 19.2008 20.0062 18.7695C20.8875 18.5333 21.5812 17.862 21.8174 16.977C22.2449 15.3683 22.245 12.0158 22.245 12.0158C22.245 12.0158 22.2449 8.66328 21.8174 7.05453H21.8137ZM9.90745 15.0608V8.97078L15.2587 12.0158L9.90745 15.0608Z" fill="currentColor"/>
</svg>
