<svg xmlns="http://www.w3.org/2000/svg" viewBox="0 0 24 24">
  <path d="M16.0313 11.2388C16.1138 11.2725 16.1888 11.31 16.2675 11.3438C17.3625 11.8725 18.165 12.6638 18.585 13.6463C19.1738 15.015 19.23 17.2388 17.4488 19.0163C16.0912 20.3738 14.4375 20.985 12.1013 21.0037H12.09C9.4575 20.985 7.43625 20.1 6.075 18.3713C4.86375 16.8338 4.24125 14.6925 4.21875 12.0112V11.9925C4.2375 9.31125 4.86 7.17 6.07125 5.6325C7.4325 3.90375 9.4575 3.01875 12.09 3H12.1013C14.7375 3.01875 16.785 3.9 18.1875 5.62125C18.8775 6.4725 19.3875 7.49625 19.71 8.685L18.195 9.09C17.9288 8.1225 17.5275 7.2975 16.9875 6.6375C15.8925 5.295 14.25 4.605 12.0938 4.59C9.95625 4.60875 8.34 5.295 7.28625 6.63C6.30375 7.87875 5.79375 9.68625 5.775 12C5.79375 14.3138 6.30375 16.1213 7.28625 17.3738C8.33625 18.7088 9.95625 19.395 12.0938 19.4138C14.0213 19.3988 15.2963 18.9413 16.3575 17.88C17.5688 16.6725 17.5463 15.1875 17.16 14.2838C16.9313 13.7513 16.5188 13.3088 15.9638 12.975C15.825 13.9838 15.5213 14.7863 15.0375 15.405C14.3963 16.2225 13.485 16.665 12.3112 16.7288C11.4262 16.7775 10.575 16.5638 9.915 16.1288C9.135 15.6113 8.6775 14.8238 8.62875 13.905C8.535 12.0937 9.9675 10.7925 12.1987 10.665C12.99 10.62 13.7325 10.6538 14.4188 10.77C14.3288 10.215 14.145 9.7725 13.8713 9.45C13.4963 9.01125 12.9113 8.78625 12.1388 8.7825H12.1125C11.49 8.7825 10.65 8.955 10.1138 9.76875L8.82375 8.88375C9.54375 7.7925 10.71 7.1925 12.1163 7.1925H12.1463C14.4938 7.2075 15.8925 8.67375 16.035 11.2313L16.0275 11.2388H16.0313ZM10.1813 13.8188C10.23 14.76 11.2463 15.1988 12.2288 15.1425C13.1888 15.09 14.2763 14.715 14.46 12.3975C13.965 12.2888 13.4175 12.2325 12.8325 12.2325C12.6525 12.2325 12.4725 12.2363 12.2925 12.2475C10.6837 12.3375 10.1475 13.1175 10.185 13.815L10.1813 13.8188Z" fill="currentColor"/>
</svg>