<svg xmlns="http://www.w3.org/2000/svg" viewBox="0 0 24 24">
  <path d="M17.6213 20.4116C17.1113 20.9554 15.7463 21.6004 13.9688 21.6004C9.4388 21.6004 8.4563 18.2704 8.4563 16.3279V10.9279H6.67505C6.4688 10.9279 6.30005 10.7591 6.30005 10.5529V8.00289C6.30005 7.73289 6.4688 7.49289 6.7238 7.40289C9.0488 6.58539 9.78005 4.55289 9.88505 3.01164C9.91505 2.59914 10.1288 2.40039 10.4888 2.40039H13.1475C13.3538 2.40039 13.5225 2.56914 13.5225 2.77539V7.09539H16.635C16.8413 7.09539 17.01 7.26039 17.01 7.46664V10.5304C17.01 10.7366 16.8413 10.9054 16.635 10.9054H13.5075V15.9004C13.5075 17.1829 14.3963 17.9104 16.0575 17.2429C16.2375 17.1716 16.395 17.1229 16.5338 17.1604C16.665 17.1941 16.7513 17.2879 16.8113 17.4566L17.6363 19.8679C17.7038 20.0554 17.76 20.2654 17.6213 20.4116Z" fill="currentColor"/>
</svg>
