<svg xmlns="http://www.w3.org/2000/svg" viewBox="0 0 20 20" fill="none">
  <path d="M13.75 15.625C13.75 16.1223 13.5525 16.5992 13.2008 16.9508C12.8492 17.3025 12.3723 17.5 11.875 17.5C11.3777 17.5 10.9008 17.3025 10.5492 16.9508C10.1975 16.5992 10 16.1223 10 15.625V10.625" stroke="currentColor" stroke-width="var(--icon-stroke-width, 2)" stroke-linecap="round" stroke-linejoin="round"/>
  <path d="M2.49954 10.6251C2.41258 10.6254 2.3265 10.6076 2.24682 10.5728C2.16713 10.538 2.09559 10.4869 2.03677 10.4229C1.97794 10.3588 1.93313 10.2832 1.90519 10.2009C1.87726 10.1185 1.86682 10.0312 1.87454 9.94462C2.05289 7.91335 2.98584 6.02262 4.48943 4.64526C5.99302 3.26791 7.95811 2.50391 9.99719 2.50391C12.0363 2.50391 14.0014 3.26791 15.505 4.64526C17.0085 6.02262 17.9415 7.91335 18.1198 9.94462C18.1276 10.0312 18.1171 10.1185 18.0892 10.2009C18.0613 10.2832 18.0164 10.3588 17.9576 10.4229C17.8988 10.4869 17.8273 10.538 17.7476 10.5728C17.6679 10.6076 17.5818 10.6254 17.4948 10.6251H2.49954Z" stroke="currentColor" stroke-width="var(--icon-stroke-width, 2)" stroke-linecap="round" stroke-linejoin="round"/>
</svg>