
<svg xmlns="http://www.w3.org/2000/svg" viewBox="0 0 24 24">
  <path d="M12.0004 3.27344C9.63033 3.27344 9.33289 3.2838 8.402 3.32616C7.47294 3.36871 6.83878 3.5158 6.28389 3.73162C5.7099 3.95453 5.22301 4.25271 4.73793 4.73798C4.25249 5.22307 3.95432 5.70998 3.73069 6.2838C3.51433 6.83889 3.36707 7.47326 3.32525 8.40198C3.28361 9.33289 3.27271 9.63053 3.27271 12.0007C3.27271 14.3709 3.28325 14.6674 3.32543 15.5983C3.36816 16.5274 3.51524 17.1616 3.73087 17.7165C3.95396 18.2905 4.25213 18.7774 4.73739 19.2625C5.22228 19.748 5.70918 20.0469 6.2828 20.2698C6.83805 20.4856 7.4724 20.6327 8.40128 20.6753C9.33216 20.7176 9.62942 20.728 11.9993 20.728C14.3696 20.728 14.6662 20.7176 15.5971 20.6753C16.5261 20.6327 17.161 20.4856 17.7163 20.2698C18.2901 20.0469 18.7762 19.748 19.2611 19.2625C19.7466 18.7774 20.0447 18.2905 20.2684 17.7167C20.4829 17.1616 20.6302 16.5273 20.6738 15.5985C20.7156 14.6676 20.7265 14.3709 20.7265 12.0007C20.7265 9.63053 20.7156 9.33307 20.6738 8.40216C20.6302 7.47307 20.4829 6.83889 20.2684 6.28398C20.0447 5.70998 19.7466 5.22307 19.2611 4.73798C18.7757 4.25253 18.2903 3.95435 17.7157 3.73162C17.1594 3.5158 16.5248 3.36871 15.5958 3.32616C14.6649 3.2838 14.3686 3.27344 11.9977 3.27344H12.0004ZM11.2176 4.84616C11.4499 4.8458 11.7092 4.84616 12.0004 4.84616C14.3306 4.84616 14.6067 4.85453 15.5269 4.89635C16.3778 4.93526 16.8396 5.07744 17.1472 5.19689C17.5545 5.35507 17.8448 5.54416 18.1501 5.84962C18.4555 6.15507 18.6446 6.44598 18.8031 6.85326C18.9226 7.16053 19.065 7.62235 19.1037 8.47326C19.1455 9.39326 19.1546 9.66962 19.1546 11.9987C19.1546 14.3278 19.1455 14.6042 19.1037 15.5242C19.0648 16.3751 18.9226 16.8369 18.8031 17.1442C18.645 17.5514 18.4555 17.8414 18.1501 18.1467C17.8446 18.4522 17.5546 18.6413 17.1472 18.7994C16.8399 18.9194 16.3778 19.0613 15.5269 19.1002C14.6069 19.142 14.3306 19.1511 12.0004 19.1511C9.67015 19.1511 9.39397 19.142 8.474 19.1002C7.62312 19.0609 7.16131 18.9187 6.85351 18.7993C6.44625 18.6411 6.15534 18.452 5.8499 18.1465C5.54445 17.8411 5.35537 17.5509 5.19683 17.1434C5.07738 16.8362 4.93502 16.3743 4.89629 15.5234C4.85448 14.6034 4.84611 14.3271 4.84611 11.9965C4.84611 9.66598 4.85448 9.39107 4.89629 8.47107C4.9352 7.62016 5.07738 7.15835 5.19683 6.85071C5.35501 6.44344 5.54445 6.15253 5.8499 5.84707C6.15534 5.54162 6.44625 5.35253 6.85351 5.19398C7.16113 5.07398 7.62312 4.93216 8.474 4.89307C9.27907 4.85671 9.59106 4.8458 11.2176 4.84398V4.84616ZM16.6588 6.29526C16.0807 6.29526 15.6116 6.7638 15.6116 7.34216C15.6116 7.92035 16.0807 8.38944 16.6588 8.38944C17.237 8.38944 17.7061 7.92035 17.7061 7.34216C17.7061 6.76398 17.237 6.29489 16.6588 6.29489V6.29526ZM12.0004 7.51889C9.52542 7.51889 7.51876 9.52562 7.51876 12.0007C7.51876 14.4758 9.52542 16.4816 12.0004 16.4816C14.4755 16.4816 16.4814 14.4758 16.4814 12.0007C16.4814 9.52562 14.4753 7.51889 12.0003 7.51889H12.0004ZM12.0004 9.09162C13.6069 9.09162 14.9094 10.394 14.9094 12.0007C14.9094 13.6073 13.6069 14.9098 12.0004 14.9098C10.3938 14.9098 9.09144 13.6073 9.09144 12.0007C9.09144 10.394 10.3938 9.09162 12.0004 9.09162V9.09162Z" fill="currentColor"/>
</svg>